<svg id="e19WU82e6Cf1" xmlns="http://www.w3.org/2000/svg" xmlns:xlink="http://www.w3.org/1999/xlink" viewBox="0 0 400 400" shape-rendering="geometricPrecision" text-rendering="geometricPrecision" project-id="6fe23cce01f5465289be04ed701f6cc9" export-id="fb44a651d3244dfbb1c5c6c3be472a85" cached="false"><path d="M817.37976,305.451774q0,4.878912,4.878912,8.944672" fill="none" stroke="#3f5787" stroke-width="2.8"/><path d="M1334.70869,252.51159l-.00001,75.17487h-.95316l.00001.00001h-298.09365l43.45846-43.45846c27.10608,26.86508,64.40943,43.45846,105.58837,43.45846c21.96326,0,42.82401-4.72039,61.62309-13.20201l-.00001-.00001c0,0,.00001,0,.00001,0l-211.62311-211.6231-.00001-75.17488h.00001v0h.95317v0h74.2217l.00001.00001h74.82512c-21.96327,0-42.82403,4.7204-61.6231,13.20201M1291.25023,72.0981l43.45846-43.45846v148.99146c-.01487-41.15701-16.60541-78.43907-43.45846-105.533Zm-.95317-.95317c-27.10224-26.86127-64.39885-43.45376-105.57085-43.45846h149.02931l-43.45846,43.45846ZM1034.70869,327.68647v-.95317l.00001-.00001v.95318h-.00001Zm.00001-149.99999c0,71.91193,0-27.45262,0,0c0,41.17894,16.59338,78.48228,43.45845,105.58835l-43.45845,43.45845v-149.0468Z" transform="translate(-2.966101-1.088117)" fill="#000000" stroke-width="0"/><g transform="translate(-50.723389 25.401651)"><path d="M396.38408,226.71173l-.00001,75.17487h-.95316l.00001.00001h-251.19685v-40.15667c26.78078,24.91629,62.68562,40.15667,102.15003,40.15667c21.96326,0,42.82401-4.72039,61.62309-13.20201l-.00001-.00001h.00001L96.38408,77.06149L96.38407,1.88661h75.17488l.00001.00001h74.82512c-21.96327,0-42.82403,4.7204-61.6231,13.20201l211.6231,211.6231ZM246.4016,1.8866h102.13248v40.15665C321.75726,17.13066,285.85911,1.89111,246.4016,1.8866Z" transform="translate(4.339315 23.1134)" fill="#000000" stroke-width="0"/><ellipse rx="25.409241" ry="25.409228" transform="matrix(1.967788 0 0 1.967789 150.723385 275.000011)" fill="#000000" stroke-width="0"/><ellipse rx="41.50373" ry="41.503764" transform="matrix(1.204711 0 0 1.20471 350.723395 74.598352)" fill="#000000" stroke-width="0"/></g><path d="M396.38408,226.71173l-.00001,75.17487h-.95316l.00001.00001h-251.19685v-40.15667c26.78078,24.91629,62.68562,40.15667,102.15003,40.15667c21.96326,0,42.82401-4.72039,61.62309-13.20201l-.00001-.00001h.00001L103.049738,78.659833c0,0-20.479951-36.616583,9.077283-61.97286C132.246344,-0.572799,171.55895,1.88661,171.55895,1.88661l.00001.00001h74.82512c-21.96327,0-42.82403,4.7204-61.6231,13.20201l211.6231,211.6231ZM246.4016,1.8866h102.13248v40.15665C321.75726,17.13066,285.85911,1.89111,246.4016,1.8866Z" transform="translate(453.615911 23.1134)" fill="#000000" stroke-width="0"/><ellipse rx="25.409241" ry="25.409228" transform="matrix(1.967788 0 0 1.967789 599.99998 275.000011)" fill="#000000" stroke-width="0"/><ellipse rx="41.50373" ry="41.503764" transform="matrix(1.204711 0 0 1.20471 799.99999 74.598352)" fill="#000000" stroke-width="0"/><ellipse rx="50" ry="50" transform="translate(817.37976 195.415263)" fill="#d2dbed" stroke-width="0"/></svg>
